<?xml version="1.0" standalone="no"?><svg xmlns="http://www.w3.org/2000/svg" viewBox="0 0 1440 320"><path fill="#850012" fill-opacity="1" d="M0,192L0,160L96,160L96,128L192,128L192,32L288,32L288,128L384,128L384,128L480,128L480,256L576,256L576,224L672,224L672,192L768,192L768,64L864,64L864,128L960,128L960,64L1056,64L1056,224L1152,224L1152,64L1248,64L1248,0L1344,0L1344,32L1440,32L1440,320L1344,320L1344,320L1248,320L1248,320L1152,320L1152,320L1056,320L1056,320L960,320L960,320L864,320L864,320L768,320L768,320L672,320L672,320L576,320L576,320L480,320L480,320L384,320L384,320L288,320L288,320L192,320L192,320L96,320L96,320L0,320L0,320Z"></path></svg>